<?xml version="1.0" encoding="UTF-8"?>
<svg id="Laag_1" xmlns="http://www.w3.org/2000/svg" version="1.1" viewBox="0 0 841.89 595.28">
  <!-- Generator: Adobe Illustrator 30.2.1, SVG Export Plug-In . SVG Version: 2.1.1 Build 1)  -->
  <defs>
    <style>
      .st0 {
        fill: #010202;
      }

      .st1 {
        fill: #e23e39;
      }
    </style>
  </defs>
  <path class="st1" d="M214.6,319.77l-.16-34.75c0-1.91-1.04-3.67-2.14-4.48-4.75-3.48-11.67,2.46-11.7,4.51l-.5,34.3c-4.25.65-8.59.21-13.68.25v-68s13.68-1.34,13.68-1.34l.14,25c5.95-6.77,15.4-8.49,22.82-3.76,3.44,2.2,5.17,6.46,5.19,10.61l.15,37.67-13.8-.03Z"/>
  <path class="st1" d="M168.95,270.27c3.87-.44,7.47-.11,11.8-.15l-7.85,49.44-14.62.2-5.38-29.24-4.94,29.05-14.37.02-8.22-49.15c4.07-.7,7.96-.27,12.25-.34l3.4,29.18c.28,2.41-.19,4.73.78,7.34l5.67-30.76,11.51-.02,5.5,30.38,4.49-35.94Z"/>
  <path class="st1" d="M479.41,280.96c-4.38-3.27-9.59.05-12.16,4.02l-.31,34.47c-4.47.43-9.01.23-13.9.11l-.05-49.33,12.15-.17c.89,1.67.49,3.46,1.19,5.2,5.03-4.53,11.17-7.53,17.91-6.11,13.18,2.77,11.09,16.26,10.97,27.91-.08,7.7.47,14.99-.24,22.74h-13.66s-.18-34.06-.18-34.06c0-1.83-.52-3.88-1.72-4.78Z"/>
  <path class="st1" d="M379.64,318.29c-9.85,4.7-26.53,3.11-34.61-4.69,1.87-3.13,3.75-5.9,6.63-8.41,5.78,5.58,21.1,7.88,21.84.77.9-8.73-24.73-4.85-26.24-20.04-.55-5.56,1.55-10.71,6.8-13.62,10.35-5.74,23.6-4.34,33.35,2.61l-5.54,8.18c-4.65-2.96-18.68-7.46-20.06-.47-1.34,6.8,18.16,5.47,23.93,13.88,5.16,7.52,2.33,17.77-6.1,21.79Z"/>
  <path class="st1" d="M605.83,318.86c-4.78,1.84-10.01.32-15.16.93l-9.93-18.66-9.45,18.55c-5.24-.14-9.83.39-15.25-.36l16.31-25.65-14.61-23.34,15.11-.25,8.39,15.45,8.63-15.42,14.72.09-14.69,23.08,15.93,25.58Z"/>
  <path class="st1" d="M332.05,306.86l4.12,10.21c-7.13,3.76-15.24,5.02-22.76,2.7-6.48-1.99-11.13-7.31-11.19-14.15l-.21-24.89c-3.46-1-6.72-.15-10.34-.72-.27-3.45-.26-6.57-.11-9.94l10.49-.14.24-10.5,13.67-1.69c.63,4.29.13,8.06.29,12.21l16.09.4c-.52,3.56-.54,6.53-1.48,9.65l-14.34.3-.06,24.63c0,2.53,1.86,4.16,4.13,4.56,4.05.71,7.37-.36,11.46-2.62Z"/>
  <path class="st1" d="M651.78,306.81l4.52,10.22c-7,3.66-14.73,5.01-22.3,2.97-6.66-1.79-11.52-7.32-11.64-14.23l-.46-25.36-9.92-.39c-.45-3.41-.36-6.56-.06-9.89l10.06-.15.3-10.42,13.92-1.77.26,12.2,15.6.12-1,9.89-14.61.53-.06,23.7c0,2.86,1.63,4.84,4.36,5.3,3.87.66,7.21-.37,11.04-2.71Z"/>
  <polygon class="st0" points="696.68 244.94 707.69 249.87 671.89 329.57 660.88 324.64 696.68 244.94"/>
  <path class="st0" d="M718.83,317.22c-2.49-2.91-3.35-6.37-4.19-10.06l29.37-17.04-29.31-17.04c.53-3.66,2.04-6.93,3.87-10.13l36.65,21.33c1.04,3.56.86,7.25.29,11.22l-36.69,21.7Z"/>
  <path class="st0" d="M119.49,306.86c-.2,3.37-1.74,6.65-3.74,10.48l-36.73-21.66c-.95-3.76-1.03-7.66.02-11.29l36.5-21.38c1.98,3.05,3.12,6.15,4.33,10.03l-29.72,17.04,29.34,16.77Z"/>
  <rect class="st0" x="415.23" y="306.51" width="10.95" height="48.66" transform="translate(89.8 751.5) rotate(-89.99)"/>
  <path class="st0" d="M191.73,345.85c1.39-1.52.94-6.5,1.94-7.5,3.15-3.14-.29,10.5-.48,11.26-.15.6-2.19.74-2.36.2l-1.85-5.77c-1.53,1.88-.82,3.67-1.65,5.45-.4.85-2.16.91-2.46-.02-.99-3.04-.48-5.88-2.34-9.08-1.92,2.48-1.2,9.66-3.24,9.73-3.08.11-1.51-2.87-3.41-5.72-.99,1.54-.67,3.29-1.44,5.05-.35.79-1.34.78-2.09.47-1.27-.52-.95-6.29-2.57-8.06-2.56.93-1.48,7.72-3.34,8.12-1.34.28-2.07-.43-2.29-1.95-.07-.5-.31-1.18-.34-1.59-.02-.31-.27-.74-.91-.56-1.33.37-1.01,3.37-1.76,3.93-.42.31-1.98.38-2.17-.22-.32-1-3.19-11.99-1.22-11.55.48.11.89.32,1,.99l1.27,7.21c1.53-.66,1-6.48,3.07-6.74,1.57-.2,2.9,7.51,3.79,2.14.18-1.07.02-2.66.7-3.16.73-.53,3.13-.73,3.9.17,1.52,1.8.19,4.42,1.9,6.95.81-.24.91-5.18,1.84-5.77.46-.29,1.61-.47,1.9.15,1.05,2.27.59,4.62,1.47,6.89,1.52-2.66.86-5.57,1.87-8.12.39-1,3.89-1,4.12.02l1.81,8.07,1.6-6.73c.21-.9,1.84-.78,2.19.12.75,1.92.28,3.61,1.54,5.65Z"/>
  <rect class="st0" x="761.28" y="248.05" width="2.32" height="81.85"/>
  <path class="st0" d="M217.78,346.18c1.14-1.26.55-8.08,2.47-8,.43.02.96.54.8,1.4l-1.91,9.84c-.16.83-2.11.9-2.45.24-1.02-2.02-.78-4.21-1.68-6.6-1.27,2.03-.84,4.35-1.86,6.58-.29.64-2.47.69-2.58-.18-.51-4.08-2.08-7.7-1.61-11.94,3.3,2.31,1.35,5.61,3.14,8.58,1.13-1.19.76-6.83,2.85-6.8,1.87.03,1.52,4.93,2.82,6.86Z"/>
  <path class="st0" d="M362.66,342.2c.6,3.48-.34,7.44-3.98,7.87-1.81.21-3.61-.65-5.58-.04l-.23-16.03c0-.63.84-.89,1.19-.9,2.18-.07.44,2.79,1.25,5.88,1.64-.69,3.1-1.56,4.69-.88,1.29.55,2.3,1.94,2.68,4.1ZM359.29,340.11c-.72-.61-2.54-.82-3.35.37-1.25,1.84-1.31,5.1-.14,7.04.84,1.39,3.17,1,3.99-.02,1.35-1.66.95-6.16-.5-7.39Z"/>
  <path class="st0" d="M242.81,349.35c-1.82.38-3.33,1.44-5.32.5-1.3-.62-2.17-2.41-1.53-4.43,1.44-4.54,8.49-1.15,6.63-4.69-1.32-2.51-5.26.43-6.24-1.52,2.1-1.89,6.5-2.26,8.01.42.34.59,1.46,9.66,1.05,10.22-.61.86-1.83-.66-2.61-.5ZM242.22,347.59c.76-.91,1-2.2.55-2.99-.41-.71-1.77-.47-2.71-.29-1.22.24-2,.95-2.11,2.05-.09.83.31,1.88,1.42,2.13.71.16,1.95.17,2.85-.9Z"/>
  <path class="st0" d="M304.5,347.98c2.69,1.4,4.72-1,5.29.03.37.68.08,1.32-.76,1.62-2.17.78-4.57.92-6.41-.6-2.87-2.36-2.58-9.11.94-10.7,1.91-.87,4.21-.57,5.52.68,1.51,1.45,1.9,3.76,1.26,5.66-2.41.45-4.94-.52-7.2.61-.36,1.09.7,2.35,1.36,2.69ZM308.64,342.98c-.08-2.54-1.52-3.51-3.03-3.39s-2.72,1.45-2.56,3.49c1.99.17,3.58.33,5.59-.1Z"/>
  <path class="st0" d="M368.92,347.67c3.25,2.13,4.91-1.33,5.77.33.33.64.07,1.25-.79,1.62-2.14.92-4.52.91-6.4-.59-2.55-2.04-2.93-8.62.92-10.67,1.72-.92,4.14-.58,5.43.63,1.14,1.08,2.62,5.37,1.07,5.5l-6.73.58c-.9.08.11,2.19.73,2.6ZM373.29,343.08c.51-1.97-1.12-3.59-2.82-3.46-1.56.12-2.88,1.51-2.53,3.48,1.99.06,3.56.12,5.35-.01Z"/>
  <path class="st0" d="M230.68,349.6l-.36-8.52c-.07-1.56-1.87-1.66-3.05-1.35-1,.26-1.87,1.2-1.87,2.71l-.03,6.39c0,.92-.33,1.33-1.12,1.33-.51,0-.94-.35-.94-1.31l.04-14.23c0-1.6,1.19-1.64,1.38-1.54,1.5.77-.15,5.95,1.1,6.07,2.21-1.57,5.51-1.9,6.26.58.96,3.2.3,6.52.34,9.9,0,.56-1.73.62-1.75-.03Z"/>
  <path class="st0" d="M331.51,347.97c1.9,1.06,3.39-.34,5.14.89-1.42,1.9-3.96,1.7-5.66.91-3.91-1.81,1.01-7.61-4.73-10.98,2.15-.7,2.61-2.06,4.01-4.56,1.61,2.81,2.57,4.25,5.36,4.43-.93,1.49-2.69.88-3.55,2.1-1.34,1.89-.78,4.35-.56,7.2Z"/>
  <path class="st0" d="M268.66,349.92c-2.35.6-4.84.34-6.57-1.15-.66-3.35,6.1,2.34,7.03-2.08.65-3.08-7.17-1.06-6.6-5.99.22-1.87,1.96-2.94,4.18-2.97,1.06-.01,2.09.25,3.13.53.61.16,1.44,1.24.46,2.05-1.64-.2-4.46-1.79-5.59.31-1.49,2.75,5.9,1.34,6.59,5.2.32,1.77-.56,3.56-2.62,4.08Z"/>
  <path class="st0" d="M254.2,348.11c1.4,1.05,3.2-.59,4.39.8-1.22,1.78-3.5,1.44-5.33.82-3.63-1.24.89-6.99-4.69-11.01,5.21-2.13,1.55-2.09,4.12-4.4,1.35,2.17,2.26,4.2,4.9,3.63.28,2.47-1.94,1.27-2.69,2.02-1.89,1.89-1.92,5.67-.69,8.15Z"/>
  <path class="st0" d="M296.29,350.08c-2.74.07,1.28-12.76-3.92-10.39-4.62,2.1-.31,10.4-3.22,10.4-1.81,0-.79-10.19-.63-12.06,3.84,1.65,3.77-1.29,7.11.17.82.36,1.53,1.43,1.55,2.8l.09,7.83c.01.93-.46,1.22-1,1.24Z"/>
  <path class="st0" d="M323.83,349.71c-2.67,1.76-3.64-3.22-4.82-3.78-1.6-.76-2.26,5.13-5.42,3.94.41-2.05,2.46-3.24,3.05-5.33.74-2.67-3.23-5.18-2.28-6.3.24-.28,1.12-.45,1.53.06l2.86,3.57c1.66-1.2,1.61-3.56,4.35-3.88-.1,2.44-2.08,3.51-3.01,5.52l3.75,6.21Z"/>
  <rect class="st0" x="278.9" y="338.86" width="1.81" height="8.39" transform="translate(-65.45 620.15) rotate(-89.55)"/>
  <circle class="st0" cx="201.8" cy="348.2" r="1.97"/>
  <circle class="st0" cx="344.48" cy="348.23" r="1.99"/>
  <path class="st1" d="M254.23,320.94c-9.86.15-16.9-6.6-16.78-16.02.19-15.03,16.86-16.68,28.64-16.43,1.52-1.13.59-4.6-.38-6.26-3.05-5.25-15.69-2.72-21.3.14l-3.46-9.47c8.65-3.77,17.66-5.09,26.73-3.25,7.6,1.55,12.86,7.3,12.89,15.1l.09,21.64c.01,2.53,2.2,3.21,3.61,4.24l-1.4,9.39c-5.23,1.17-10.74-.54-13.45-6.13-3.57,5.13-8.86,6.96-15.18,7.05ZM266.89,305.77c.04-3.33.28-6.01-.23-9.07-5.8-.21-14.11-.3-14.93,6.58-.33,2.72.79,5.88,3.79,6.9,4.34,1.47,8.88-.88,11.37-4.41Z"/>
  <path class="st1" d="M542.45,305.66c2.45,2.71,4.48,5.31,6.13,8.38-10.23,9.8-31.45,9.55-39.52-3.31-5.43-8.64-5.51-19.56-1.55-28.82,3.75-8.77,12.13-13.28,21.52-13.07,10.01.23,18.45,6.54,20.57,16.43.97,4.54,1.19,9.01.72,13.82l-31.21.13c.07,4.23,2.35,8.45,6.28,10.03,5.79,2.32,12.21.69,17.07-3.6ZM536.71,290.11c.33-3.6-.52-6.74-2.79-9.16-2.08-2.22-5.2-2.63-8.21-1.94-4.33.99-7.24,7.06-6.44,11.33l17.44-.23Z"/>
</svg>