<?xml version="1.0" encoding="UTF-8"?>
<svg id="Laag_1" xmlns="http://www.w3.org/2000/svg" version="1.1" viewBox="0 0 841.89 595.28">
  <!-- Generator: Adobe Illustrator 30.2.1, SVG Export Plug-In . SVG Version: 2.1.1 Build 1)  -->
  <defs>
    <style>
      .st0 {
        fill: #e23e39;
      }
    </style>
  </defs>
  <path class="st0" d="M495.13,141.75h-148.36c-45.13,0-81.71,36.58-81.71,81.71v148.36c0,45.13,36.58,81.71,81.71,81.71h148.36c45.13,0,81.71-36.58,81.71-81.71v-148.36c0-45.13-36.58-81.71-81.71-81.71ZM379.96,359.36c-4.94-6.07-8.46-12.15-12.67-18.83l-63.91-101.59c-2.71-4.94,32.88-2.39,36.66-2.59l60.18,95.14c10.72-10.47,19.7-20.21,28.92-30.45,2.12-2.35.42-5.51-1.54-7.34l-55.1-51.91c-1.1-1.04-1.92-2.03-1.83-3.16.09-1.27,1.49-2.72,3.29-2.71l31.87.06c3.14,0,5.91.68,7.84,2.54l56.34,54.26c1.71,1.64,2.45,3.06,2.56,5.01.12,2.22-1.1,3.72-2.93,5.64l-53.33,55.91-36.35.02ZM535.77,302.62l-53.66,56.48-36.25.31c-.93,0-1.45-.64-1.86-.81-.63-.26-1.21-2.21-.35-3.11l51.55-54.45c1.98-2.09,1.4-5.38-.54-7.24l-56.5-54.02c-.91-.87-.23-2.31.18-2.77.45-.5,1.5-1.12,2.68-1.11l36.68.21,41.98,40.6,16.1,15.27c1.56,1.48,2.57,3.14,2.81,4.69.4,2.61-.99,4.04-2.81,5.96Z"/>
</svg>